<svg xmlns="http://www.w3.org/2000/svg" width="133.488" height="31.515" viewBox="0 0 133.488 31.515">
  <g id="Group_340" data-name="Group 340" transform="translate(-139.549 -60.245)">
    <g id="Group_339" data-name="Group 339" transform="translate(139.549 60.245)">
      <g id="Group_335" data-name="Group 335" transform="translate(0 3.636)">
        <path id="Path_2016" data-name="Path 2016" d="M139.549,63.787h11.218c5.829,0,9.3,3.593,9.3,8.663s-3.473,8.663-9.3,8.663h-5.909V87.8h-5.309Zm10.979,12.895c3.114,0,4.391-2,4.391-4.232s-1.277-4.232-4.391-4.232h-5.67v8.463Z" transform="translate(-139.549 -63.787)" fill="#1d1d1b"/>
        <path id="Path_2017" data-name="Path 2017" d="M180.2,81c-.759,4.272-4.511,7.027-9.462,7.027-6.587,0-10.26-5.19-10.26-10.46,0-5.309,3.274-10.3,9.861-10.3,6.747,0,9.78,4.911,9.78,9.7,0,.679-.039,1.277-.079,1.676H165.188c.359,3.234,2.435,5.309,5.549,5.309,2.515,0,4.153-1.038,4.671-2.954Zm-14.891-5.589h9.9a4.614,4.614,0,0,0-4.87-4.472C167.583,70.937,165.826,72.374,165.308,75.409Z" transform="translate(-138.993 -63.695)" fill="#1d1d1b"/>
        <path id="Path_2018" data-name="Path 2018" d="M182.028,67.583h4.91V70.7a6.654,6.654,0,0,1,6.268-3.434c4.551,0,7.505,3.274,7.505,7.985V87.705H195.8V76.287c0-2.754-1.677-4.67-4.193-4.67-2.754,0-4.671,2.156-4.671,5.109V87.705h-4.91Z" transform="translate(-138.42 -63.695)" fill="#1d1d1b"/>
        <path id="Path_2019" data-name="Path 2019" d="M202.47,81h4.472c.2,1.917,1.677,3.115,3.873,3.115,1.916,0,3.194-.959,3.194-2.156,0-4.472-11.019-.2-11.019-8.7,0-3.514,3.075-5.989,7.226-5.989,4.711,0,7.945,2.6,8.144,6.508h-4.471a3.465,3.465,0,0,0-3.553-2.835c-1.756,0-2.914.8-2.914,2.156,0,4.352,11.178-.438,11.178,8.663,0,3.793-3.075,6.268-7.785,6.268C205.944,88.024,202.71,85.309,202.47,81Z" transform="translate(-137.877 -63.695)" fill="#1d1d1b"/>
        <path id="Path_2020" data-name="Path 2020" d="M219.374,77.645a10.52,10.52,0,1,1,10.54,10.38A10.11,10.11,0,0,1,219.374,77.645Zm16.089,0c0-3.633-2.236-6.149-5.549-6.149-3.354,0-5.59,2.516-5.59,6.149s2.236,6.148,5.59,6.148C233.227,83.793,235.463,81.278,235.463,77.645Z" transform="translate(-137.427 -63.695)" fill="#1d1d1b"/>
      </g>
      <g id="Group_338" data-name="Group 338" transform="translate(113.326)">
        <g id="Group_336" data-name="Group 336" transform="translate(0 21.039)">
          <path id="Path_2021" data-name="Path 2021" d="M259.13,91.215h-7.9a1.287,1.287,0,0,1-1.287-1.287v-7.9a1.287,1.287,0,0,1,1.287-1.287h9.189v9.189A1.287,1.287,0,0,1,259.13,91.215Z" transform="translate(-249.941 -80.739)" fill="#000cd9"/>
        </g>
        <g id="Group_337" data-name="Group 337" transform="translate(0.79)">
          <path id="Path_2022" data-name="Path 2022" d="M268.793,81.284h-8.4l-9.55-19.177A1.288,1.288,0,0,1,252,60.245h7.6a1.289,1.289,0,0,1,1.153.713l9.194,18.464A1.287,1.287,0,0,1,268.793,81.284Z" transform="translate(-250.71 -60.245)" fill="#000cd9"/>
        </g>
      </g>
    </g>
  </g>
</svg>
